HIERARCHY
ROOT Hips
{
	OFFSET	0	0	0
	CHANNELS 6  Xposition Yposition Zposition Xrotation Yrotation Zrotation
	JOINT Spine
	{
		OFFSET	0	7.00908	1.40711
		CHANNELS 3  Xrotation Yrotation Zrotation
		JOINT Spine1
		{
			OFFSET	0	11.9997	-2.14281
			CHANNELS 3  Xrotation Yrotation Zrotation
			JOINT Spine2
			{
				OFFSET	0	9.09621	0.974976
				CHANNELS 3  Xrotation Yrotation Zrotation
				JOINT Spine3
				{
					OFFSET	0	10.8855	3.23564
					CHANNELS 3  Xrotation Yrotation Zrotation
					JOINT Spine4
					{
						OFFSET	0	16.1139	-1.64996
						CHANNELS 3  Xrotation Yrotation Zrotation
						JOINT Neck
						{
							OFFSET	0	7.69267	-5.38915
							CHANNELS 3  Xrotation Yrotation Zrotation
							JOINT Head
							{
								OFFSET	0	9.23549	-2.76422
								CHANNELS 3  Xrotation Yrotation Zrotation
								End Site
								{
									OFFSET	0	19.2638	-0.93212
								}
							}
						}
					}
					JOINT LeftShoulder
					{
						OFFSET	-4.62846	19.5852	-9.23549
						CHANNELS 3  Xrotation Yrotation Zrotation
						JOINT LeftArm
						{
							OFFSET	-10.1082	-2.76422	3.54636
							CHANNELS 3  Xrotation Yrotation Zrotation
							JOINT LeftForeArm
							{
								OFFSET	-30.9178	-1.41114	2.20688
								CHANNELS 3  Xrotation Yrotation Zrotation
								JOINT LeftHand
								{
									OFFSET	-25.989	-1.79599	1.85507
									CHANNELS 3  Xrotation Yrotation Zrotation
									End Site
									{
										OFFSET	-9.4847	-0.655447	0.676963
									}
								}
							}
						}
					}
					JOINT RightShoulder
					{
						OFFSET	4.62846	19.5852	-9.23549
						CHANNELS 3  Xrotation Yrotation Zrotation
						JOINT RightArm
						{
							OFFSET	10.1082	-2.76422	3.54636
							CHANNELS 3  Xrotation Yrotation Zrotation
							JOINT RightForeArm
							{
								OFFSET	30.9178	-1.41114	2.20688
								CHANNELS 3  Xrotation Yrotation Zrotation
								JOINT RightHand
								{
									OFFSET	25.989	-1.79599	1.85507
									CHANNELS 3  Xrotation Yrotation Zrotation
									End Site
									{
										OFFSET	9.4847	-0.655447	0.676963
									}
								}
							}
						}
					}
				}
			}
		}
	}
	JOINT LeftUpLeg
	{
		OFFSET	-9.51492	-3.50454	-0.703555
		CHANNELS 3  Xrotation Yrotation Zrotation
		JOINT LeftLeg
		{
			OFFSET	-2.15663	-42.2584	-0.660591
			CHANNELS 3  Xrotation Yrotation Zrotation
			JOINT LeftFoot
			{
				OFFSET	-2.11138	-38.9194	3.34707
				CHANNELS 3  Xrotation Yrotation Zrotation
				JOINT LeftToeBase
				{
					OFFSET	0	-4.8091	-12.773
					CHANNELS 3  Xrotation Yrotation Zrotation
					End Site
					{
						OFFSET	0	-1.92364	-7.69456
					}
				}
			}
		}
	}
	JOINT RightUpLeg
	{
		OFFSET	9.51492	-3.50454	-0.703555
		CHANNELS 3  Xrotation Yrotation Zrotation
		JOINT RightLeg
		{
			OFFSET	2.15663	-42.2584	-0.660591
			CHANNELS 3  Xrotation Yrotation Zrotation
			JOINT RightFoot
			{
				OFFSET	2.11138	-38.9194	3.34707
				CHANNELS 3  Xrotation Yrotation Zrotation
				JOINT RightToeBase
				{
					OFFSET	0	-4.8091	-12.773
					CHANNELS 3  Xrotation Yrotation Zrotation
					End Site
					{
						OFFSET	0	-1.92364	-7.69456
					}
				}
			}
		}
	}
}
MOTION
Frames: 17
Frame Time: 0.020408
 0 -9.53305 2.91081 -0 0 -0 -0 0 -0 -0 0 -0 -0 0 -0 -0 0 -0 -0 0 -0 -0 0 -0 -0 0 -0 -0 0 -0 -0 0 -0 -0 0 -0 -0 0 -0 -0 0 -0 -0 0 -0 -0 0 -0 -0 0 -0 -0 0 -0 -0 0 -0 -0 0 -0 -0 0 -0 -0 0 -0 -0 0 -0 -0 0 -0 -0 0 -0
 88.7482 90.4442 188.482 10.5737 -30.9246 15.0043 0.00423865 0.0653476 -3.71119 177.332 179.87 173.815 177.797 179.609 173.815 179.528 179.935 176.289 176.045 179.915 178.766 170.872 -179.863 -168.898 177.346 -171.053 -177.861 0.551558 -25.8469 1.19762 36.0086 -19.0524 72.2595 124.951 -32.0337 140.082 -0 -8.89617 11.8083 174.479 -161.356 -171.603 6.42448 13.2808 -64.0262 161.137 64.1581 -161.274 -0 -6.2617 -18.6557 176.505 -175.967 -177.62 160.064 160.38 176.832 20.3843 -1.91482 1.39318 170.665 180 -180 1.81702 -18.7836 4.75885 174.319 175.305 -179.642 172.493 -179.979 169.541 171.852 180 -180
 88.3272 90.4667 188.393 10.5061 -30.6478 14.5257 0.00382075 0.0605845 -3.60857 177.348 179.879 173.986 177.802 179.638 173.986 179.512 179.939 176.391 176.116 179.919 178.8 171.055 -179.933 -168.937 177.403 -171.15 -177.854 0.716169 -25.9954 1.55522 36.3415 -18.5253 72.0039 124.967 -31.8204 140.344 -0 -8.74059 11.8993 174.367 -160.854 -171.508 5.66728 13.6315 -64.644 161.203 63.9907 -161.321 -0 -6.45598 -19.028 176.189 -175.603 -176.735 160.987 160.753 176.499 19.823 -2.47991 -0.417148 170.728 180 -180 1.90273 -18.7088 5.22665 174.632 176.247 -179.449 172.065 179.936 169.26 172.03 180 -180
 88.0717 90.5235 188.396 10.5896 -30.3027 14.8396 0.00465341 0.0734871 -3.62329 177.324 179.854 173.961 177.761 179.561 173.961 179.427 179.927 176.377 176.265 179.921 178.795 171.508 -179.917 -169.031 177.539 -171.041 -177.869 1.05645 -26.1822 2.2946 36.9275 -17.7885 71.7148 124.858 -31.8432 140.383 -0 -8.62599 12.0131 174.276 -160.323 -171.454 5.11912 13.5971 -64.5546 161.386 64.5038 -161.418 -0 -6.86617 -19.4085 175.733 -175.541 -176.809 161.829 161.26 176.161 19.5698 -2.04356 0.848289 170.573 180 -180 1.8992 -18.8167 5.12904 174.38 177.372 -179.8 171.809 179.967 169.692 171.866 180 -180
 87.6966 90.5373 188.184 11.0003 -30.5704 14.7793 0.00479809 0.0785075 -3.49736 177.303 179.844 174.171 177.75 179.531 174.171 179.443 179.921 176.503 176.185 179.922 178.837 171.349 -179.573 -169.539 177.475 -170.878 -178.033 1.02168 -25.8566 2.21875 36.7661 -17.1323 71.1899 124.908 -31.6724 140.525 -0 -8.43436 12.0748 174.302 -160.063 -171.536 4.77916 13.7906 -64.5805 161.724 64.6358 -161.901 -0 -7.20878 -19.8069 175.094 -175.539 -176.236 162.518 161.431 176.332 19.1692 -2.63874 -1.05775 170.638 180 -180 1.95867 -18.5248 5.36863 174.295 178.243 -179.439 171.404 179.773 169.482 172.046 180 -180
 87.3917 90.5574 188.009 11.3082 -30.2039 14.9526 0.00445696 0.0731163 -3.48827 177.256 179.854 174.186 177.694 179.563 174.186 179.39 179.927 176.512 176.224 179.923 178.84 171.529 -179.368 -169.887 177.52 -170.73 -178.136 1.02677 -26.1743 2.23011 36.5773 -17.103 70.8629 124.823 -31.7592 140.303 -0 -8.10813 12.0696 174.234 -159.732 -171.486 4.72552 13.6352 -64.1856 162.148 64.7372 -162.201 -0 -7.51437 -20.1429 174.629 -175.488 -175.723 163.053 161.855 175.651 18.8268 -2.86616 -1.36378 170.651 180 -180 1.6792 -18.5892 5.30521 174.287 179.299 -179.283 171.129 179.716 169.504 172.086 180 -180
 87.2552 90.6303 187.972 11.5776 -30.4193 15.1642 0.00254183 0.0423299 -3.43638 177.211 179.916 174.273 177.647 179.747 174.273 179.396 179.958 176.564 176.131 179.923 178.857 171.352 -178.87 -170.46 177.447 -170.337 -178.342 0.968872 -26.2784 2.10438 35.7981 -17.1067 70.1542 124.773 -31.8691 139.898 -0 -7.7167 12.0086 174.313 -160.153 -171.538 4.87029 13.8501 -63.8285 162.265 65.2896 -162.42 -0 -7.8673 -20.5647 174.039 -175.621 -175.875 163.76 162.064 175.92 18.5949 -2.46802 -0.560665 170.586 180 -180 1.71034 -18.3233 5.16959 174.032 -179.502 -179.444 170.932 179.619 170.058 171.939 180 -180
 86.8391 90.6547 187.96 11.6324 -30.2148 15.1058 0.00236387 0.0395347 -3.42178 177.161 179.921 174.297 177.593 179.764 174.297 179.352 179.96 176.578 176.14 179.923 178.862 171.449 -178.598 -170.699 177.468 -170.005 -178.436 0.916283 -27.0503 1.99047 35.5466 -17.3462 69.7314 124.698 -32.0348 139.473 -0 -7.27209 11.9546 174.366 -160.415 -171.576 4.87138 14.1984 -63.6228 162.434 65.3233 -162.457 -0 -8.07592 -20.888 173.937 -175.703 -175.487 164.222 162.47 175.708 18.1902 -2.33723 -0.419358 170.598 180 -180 2.03478 -18.3571 5.29192 173.685 -178.18 -179.35 170.687 179.586 170.323 171.904 180 -180
 86.5008 90.6676 187.929 11.6952 -30.6051 14.9296 0.00318834 0.0549675 -3.31967 177.147 179.89 174.467 177.59 179.671 174.467 179.36 179.945 176.68 176.093 179.925 178.896 171.393 -177.834 -171.39 177.424 -169.178 -178.713 0.768617 -27.3406 1.66964 35.1048 -17.2703 69.3544 124.539 -32.1957 139.152 -0 -6.8639 11.803 174.496 -160.595 -171.746 4.77817 14.7352 -63.8028 162.525 65.3632 -162.542 -0 -8.3716 -21.0457 173.954 -175.905 -174.993 164.575 162.612 175.749 17.7937 -2.81892 -1.72246 170.715 180 -180 2.29006 -18.1467 5.32334 173.952 -176.995 -179.03 170.197 179.204 170.365 172.015 180 -180
 86.2302 90.6751 187.849 11.8347 -30.4418 15.1163 0.00436168 0.0757635 -3.29486 177.177 179.849 174.509 177.641 179.547 174.508 179.419 179.924 176.705 176.007 179.924 178.904 171.185 -176.99 -172.047 177.332 -168.204 -179.002 0.781345 -27.5257 1.69729 34.3053 -16.7572 68.9751 124.34 -32.4231 138.975 -0 -6.47973 11.6854 174.562 -160.334 -171.886 4.64723 14.5906 -63.7603 162.572 65.7007 -162.444 -0 -8.65724 -21.013 173.778 -175.756 -174.728 164.888 162.862 175.344 17.5204 -2.99256 -2.12401 170.797 180 -180 2.15128 -18.0185 5.09044 173.996 -175.704 -178.9 169.884 179.078 170.529 172.06 180 -180
 86.2082 90.734 187.796 12.1338 -30.0708 15.3787 0.00335156 0.0587979 -3.26241 177.077 179.883 174.563 177.534 179.648 174.563 179.35 179.941 176.738 175.983 179.924 178.915 171.263 -176.147 -172.521 177.327 -167.022 -179.25 0.844666 -27.0055 1.83484 33.2548 -15.7566 68.0095 124.39 -32.3964 139.147 -0 -6.2283 11.7367 174.783 -159.815 -172.298 4.72022 14.2326 -63.6887 162.601 65.9805 -162.625 -0 -8.91003 -20.7445 173.198 -175.823 -175.034 165.275 163.158 175.688 17.3766 -2.83098 -1.5511 170.822 180 -180 1.80843 -18.1297 4.98216 173.791 -174.476 -179.199 169.873 179.211 171.011 171.96 180 -180
 85.7927 90.6978 187.589 12.311 -30.062 15.4358 0.0030119 0.0532743 -3.23581 177.06 179.894 174.607 177.52 179.681 174.607 179.357 179.947 176.764 175.936 179.924 178.924 171.204 -175.114 -172.89 177.272 -165.43 -179.519 0.721006 -26.3389 1.56592 31.5737 -14.5327 66.9428 124.159 -32.6421 138.651 -0 -6.03795 11.6874 174.904 -159.313 -172.553 5.87578 13.5538 -63.161 162.839 65.6411 -163.002 -0 -8.94549 -20.3516 173.085 -176.083 -174.376 165.511 163.435 175.073 17.077 -3.24651 -2.58744 170.994 180 -180 1.80567 -17.9167 5.24577 173.768 -173.356 -179.325 169.529 179.001 171.086 172.07 180 -180
 85.6252 90.7163 187.59 12.3883 -30.4736 15.4276 0.0024561 0.0447931 -3.13851 177.076 179.911 174.769 177.544 179.732 174.769 179.401 179.955 176.861 175.867 179.925 178.957 171.037 -174.169 -172.914 177.182 -163.741 -179.712 0.798983 -26.4383 1.73537 29.5074 -13.6844 66.2859 124.001 -32.8151 138.394 -0 -5.89986 11.8604 175.08 -158.816 -172.884 6.68372 12.7577 -62.6666 162.912 65.4898 -163.247 -0 -8.95485 -19.9786 173.012 -176.245 -174.245 165.812 163.609 175.235 16.7453 -3.415 -3.31984 171.161 180 -180 1.93992 -17.8177 5.13307 173.986 -172.356 -179.243 169.17 178.742 171.363 172.145 180 -180
 85.6069 90.7535 187.571 12.6475 -30.4407 15.6013 0.00269614 0.0501067 -3.08 177.008 179.9 174.867 177.481 179.7 174.867 179.366 179.95 176.92 175.817 179.925 178.976 171.011 -173.286 -172.903 177.133 -162.117 -179.884 0.930782 -26.7536 2.02188 27.3434 -12.8107 65.742 123.66 -33.2366 137.729 -0 -5.78738 12.0413 175.302 -158.7 -173.224 6.59348 12.6317 -62.4527 162.727 65.7929 -163.016 -0 -9.02601 -19.9318 172.569 -176.46 -174.395 166.158 163.817 175.527 16.5744 -3.54399 -3.49008 171.263 180 -180 1.6708 -17.8913 5.0003 174.03 -171.271 -179.326 169.094 178.705 171.774 172.127 180 -180
 85.4675 90.7532 187.493 12.7496 -30.773 15.6461 0.00259848 0.0486442 -3.05773 176.969 179.903 174.904 177.444 179.709 174.904 179.347 179.951 176.942 175.79 179.925 178.984 171.031 -172.314 -172.879 177.09 -160.314 179.928 1.00743 -26.7767 2.18845 25.74 -11.7445 65.1045 123.529 -33.4138 137.436 -0 -5.7844 12.3678 175.594 -159.253 -173.581 6.81087 12.965 -62.3168 162.829 65.4294 -162.753 -0 -9.02287 -19.9387 172.472 -177.143 -174.283 166.344 164.118 175.469 16.4391 -3.49112 -3.68731 171.388 180 -180 1.91383 -17.7054 5.10001 173.694 -170.36 -179.632 169.026 178.688 172.117 172.13 180 -180
 85.5655 90.7987 187.612 12.9259 -31.2297 16.1259 0.00214071 0.0402996 -3.04069 176.937 179.92 174.932 177.427 179.759 174.932 179.384 179.96 176.959 175.644 179.923 178.989 170.711 -171.318 -173.131 176.934 -158.716 179.658 1.0724 -26.1214 2.3292 23.402 -10.2443 64.687 123.305 -33.7105 137.059 -0 -5.79521 12.7754 175.805 -160.073 -173.794 6.98286 13.3049 -61.9929 162.742 65.7074 -162.664 -0 -9.16915 -19.9426 172.277 -177.791 -174.647 166.653 164.058 175.385 16.4498 -2.91794 -2.3057 171.395 180 -180 1.96024 -17.7959 4.62386 173.508 -169.388 -179.794 168.931 178.842 172.857 171.94 180 -180
 85.3042 90.7652 187.505 13.0593 -31.408 16.0702 0.00315661 0.0601172 -3.00571 176.879 179.88 174.99 177.376 179.64 174.99 179.343 179.94 176.994 175.625 179.924 179.001 170.766 -170.658 -173.222 176.91 -157.567 179.506 1.042 -26.1197 2.26315 21.0956 -8.76711 64.1182 122.62 -34.6818 135.664 -0 -5.71416 13.2875 175.623 -160.272 -173.498 7.02451 13.4143 -61.8182 162.814 65.706 -162.559 -0 -9.47609 -19.9322 172.26 -178.173 -174.288 166.558 164.288 175.413 16.2726 -3.64121 -3.89761 171.612 180 -180 1.9174 -17.6463 4.91064 173.684 -168.959 -179.873 168.643 178.777 172.736 172.134 180 -180
